<?xml version="1.0" standalone="no"?><!-- Generator: Gravit.io --><svg xmlns="http://www.w3.org/2000/svg" xmlns:xlink="http://www.w3.org/1999/xlink" style="isolation:isolate" viewBox="0 0 769 321.5" width="769" height="321.5"><defs><clipPath id="_clipPath_laoiAHlVFJRwjg9k23nzzePUIDE1hqDN"><rect width="769" height="321.5"/></clipPath></defs><g clip-path="url(#_clipPath_laoiAHlVFJRwjg9k23nzzePUIDE1hqDN)"><ellipse vector-effect="non-scaling-stroke" cx="129.49999999999977" cy="257.4999999999999" rx="63.5" ry="64" fill="rgb(31,30,72)"/><ellipse vector-effect="non-scaling-stroke" cx="466.4999999999999" cy="257.4999999999999" rx="63.5" ry="64" fill="rgb(31,30,72)"/><path d="M 218.268 102 L 226.668 102 C 232.077 102 236.468 106.391 236.468 111.8 L 236.468 138.2 C 236.468 143.609 232.077 148 226.668 148 L 218.268 148 C 212.86 148 208.468 143.609 208.468 138.2 L 208.468 111.8 C 208.468 106.391 212.86 102 218.268 102 Z" style="stroke:none;fill:#3F4A5B;stroke-miterlimit:10;"/><path d="M 219.332 102 L 227.732 102 C 233.14 102 237.532 106.391 237.532 111.8 L 237.532 138.2 C 237.532 143.609 233.14 148 227.732 148 L 219.332 148 C 213.923 148 209.532 143.609 209.532 138.2 L 209.532 111.8 C 209.532 106.391 213.923 102 219.332 102 Z" style="stroke:none;fill:#576273;stroke-miterlimit:10;"/><path d=" M 303 9 L 216 155 L 699 144 L 649 9 L 303 9 Z " fill="rgb(62,73,90)" vector-effect="non-scaling-stroke" stroke-width="1" stroke="rgb(0,0,0)" stroke-linejoin="miter" stroke-linecap="square" stroke-miterlimit="3"/><rect x="614.507" y="6.353" width="6.913" height="175.392" transform="matrix(0.966,-0.259,0.259,0.966,-3.285,163.145)" fill="rgb(136,154,181)"/><rect x="566.158" y="6.47" width="16.424" height="175.392" transform="matrix(0.966,-0.259,0.259,0.966,-4.801,151.867)" fill="rgb(136,154,181)"/><g><rect x="347.121" y="1.434" width="24" height="161.133" transform="matrix(0.866,0.5,-0.5,0.866,89.113,-168.575)" fill="rgb(136,154,181)"/><rect x="310.699" y="-2.386" width="8.723" height="161.133" transform="matrix(0.866,0.5,-0.5,0.866,81.301,-147.056)" fill="rgb(136,154,181)"/></g><rect x="229" y="125" width="209.127" height="16" transform="matrix(1,0,0,1,0,0)" fill="rgb(245,200,97)"/><rect x="459.873" y="125" width="235.127" height="16" transform="matrix(1,0,0,1,0,0)" fill="rgb(255,158,97)"/><path d=" M 292 0 L 596 0 L 596 21 L 303 21 L 228 144 L 207 144 L 292 0 Z " fill="rgb(245,200,97)"/><path d=" M 425 141 L 485 0 L 654 0 L 707 141 L 692 141 L 644 21 L 511 21 L 458 141 L 425 141 Z " fill="rgb(255,158,97)"/><rect x="9" y="136" width="760" height="125" transform="matrix(1,0,0,1,0,0)" fill="rgb(17,10,62)"/><g><ellipse vector-effect="non-scaling-stroke" cx="393.5000000000001" cy="257.4999999999999" rx="63.5" ry="64" fill="rgb(16,9,61)"/><ellipse vector-effect="non-scaling-stroke" cx="409.49999999999966" cy="251.49999999999977" rx="33.5" ry="36.999999999999986" fill="rgb(255,255,255)"/><ellipse vector-effect="non-scaling-stroke" cx="388.00000000000057" cy="250.99999999999966" rx="22" ry="18.499999999999986" fill="rgb(16,9,61)"/></g><g><ellipse vector-effect="non-scaling-stroke" cx="677.4999999999999" cy="257.4999999999999" rx="63.5" ry="64" fill="rgb(16,9,61)"/><ellipse vector-effect="non-scaling-stroke" cx="693.4999999999997" cy="251.49999999999977" rx="33.5" ry="36.999999999999986" fill="rgb(255,255,255)"/><ellipse vector-effect="non-scaling-stroke" cx="672.0000000000006" cy="250.99999999999977" rx="22" ry="18.499999999999986" fill="rgb(16,9,61)"/></g><path d=" M 612.296 261 L 467.704 261 C 467.9 258.859 468 256.691 468 254.5 L 468 251.5 C 468 212.59 436.41 181 397.5 181 L 397.5 181 C 358.59 181 327 212.59 327 251.5 L 327 254.5 C 327 256.691 327.1 258.859 327.296 261 L 9 261 L 9 136 L 769 136 L 769 261 L 752.704 261 C 752.9 258.859 753 256.691 753 254.5 L 753 251.5 C 753 212.59 721.41 181 682.5 181 L 682.5 181 C 643.59 181 612 212.59 612 251.5 L 612 254.5 C 612 256.691 612.1 258.859 612.296 261 Z " fill="rgb(255,158,97)"/><rect x="9" y="136" width="274" height="125" transform="matrix(1,0,0,1,0,0)" fill="rgb(245,200,97)"/><rect x="9" y="172" width="274" height="43" transform="matrix(1,0,0,1,0,0)" fill="rgb(62,73,90)"/><rect x="283" y="237" width="70" height="24" transform="matrix(1,0,0,1,0,0)" fill="rgb(80,92,111)"/><rect x="0" y="237" width="292" height="24" transform="matrix(1,0,0,1,0,0)" fill="rgb(104,116,135)"/><circle vector-effect="non-scaling-stroke" cx="48.49999999999977" cy="193.4999999999999" r="17.5" fill="rgb(255,255,255)"/><circle vector-effect="non-scaling-stroke" cx="246.49999999999977" cy="193.4999999999999" r="17.5" fill="rgb(255,255,255)"/><circle vector-effect="non-scaling-stroke" cx="86.50000000000011" cy="193.5" r="12.499999999999986" fill="rgb(255,137,97)"/><circle vector-effect="non-scaling-stroke" cx="210.49999999999977" cy="193.5" r="12.499999999999972" fill="rgb(255,137,97)"/><path d=" M 462.127 223.303 C 461.432 221.714 460.68 220.156 459.873 218.63 L 459.873 136 L 462.127 136 L 462.127 223.303 Z " fill="rgb(62,73,90)"/><rect x="603" y="136" width="2" height="125" transform="matrix(1,0,0,1,0,0)" fill="rgb(62,73,90)"/><path d="M 449.8 102 L 458.2 102 C 463.609 102 468 106.391 468 111.8 L 468 138.2 C 468 143.609 463.609 148 458.2 148 L 449.8 148 C 444.391 148 440 143.609 440 138.2 L 440 111.8 C 440 106.391 444.391 102 449.8 102 Z" style="stroke:none;fill:#3F4A5B;stroke-miterlimit:10;"/><path d="M 447.927 102 L 456.327 102 C 461.735 102 466.127 106.391 466.127 111.8 L 466.127 138.2 C 466.127 143.609 461.735 148 456.327 148 L 447.927 148 C 442.518 148 438.127 143.609 438.127 138.2 L 438.127 111.8 C 438.127 106.391 442.518 102 447.927 102 Z" style="stroke:none;fill:#576273;stroke-miterlimit:10;"/><path d="M 402.915 117.25 L 402.915 117.25 C 404.126 116.04 406.091 116.04 407.302 117.25 L 418.757 128.706 C 419.968 129.916 419.968 131.882 418.757 133.092 L 418.757 133.092 C 417.547 134.303 415.581 134.303 414.371 133.092 L 402.915 121.636 C 401.705 120.426 401.705 118.46 402.915 117.25 Z" style="stroke:none;fill:#10093D;stroke-miterlimit:10;"/><path d="M 343.665 118.158 L 343.665 118.158 C 343.665 116.447 345.055 115.057 346.767 115.057 L 418.063 115.057 C 419.775 115.057 421.165 116.447 421.165 118.158 L 421.165 118.158 C 421.165 119.87 419.775 121.26 418.063 121.26 L 346.767 121.26 C 345.055 121.26 343.665 119.87 343.665 118.158 Z" style="stroke:none;fill:#10093D;stroke-miterlimit:10;"/><path d="M 305.211 117.25 L 305.211 117.25 C 306.422 116.04 308.387 116.04 309.598 117.25 L 321.054 128.706 C 322.264 129.916 322.264 131.882 321.054 133.092 L 321.054 133.092 C 319.843 134.303 317.878 134.303 316.667 133.092 L 305.211 121.636 C 304.001 120.426 304.001 118.46 305.211 117.25 Z" style="stroke:none;fill:#10093D;stroke-miterlimit:10;"/><path d="M 245.961 118.158 L 245.961 118.158 C 245.961 116.447 247.351 115.057 249.063 115.057 L 320.36 115.057 C 322.072 115.057 323.461 116.447 323.461 118.158 L 323.461 118.158 C 323.461 119.87 322.072 121.26 320.36 121.26 L 249.063 121.26 C 247.351 121.26 245.961 119.87 245.961 118.158 Z" style="stroke:none;fill:#10093D;stroke-miterlimit:10;"/></g></svg>