<svg xmlns="http://www.w3.org/2000/svg" xmlns:xlink="http://www.w3.org/1999/xlink" version="1.1" x="0px" y="0px" viewBox="0 0 100 125" enable-background="new 0 0 100 100" xml:space="preserve"><path d="M44.436,49.001h0.676c3.068,0,5.564-2.496,5.564-5.565v-5.497c0-3.069-2.496-5.566-5.564-5.566h-0.676  c-3.07,0-5.566,2.497-5.566,5.566v5.497C38.869,46.505,41.365,49.001,44.436,49.001z M54.248,56.784H35.297  c-2.646,0-4.801,2.154-4.801,4.801v5.064c0,2.646,2.154,4.801,4.801,4.801h18.951c2.646,0,4.801-2.154,4.801-4.801v-5.064  C59.049,58.938,56.895,56.784,54.248,56.784z M50,5C25.147,5,5,25.147,5,50s20.147,45,45,45s45-20.147,45-45S74.853,5,50,5z   M36.469,37.938c0-4.393,3.572-7.966,7.967-7.966h0.676c4.393,0,7.965,3.573,7.965,7.966v5.497c0,4.392-3.572,7.966-7.965,7.966  h-0.676c-4.395,0-7.967-3.574-7.967-7.966V37.938z M61.447,66.649c0,3.971-3.229,7.201-7.199,7.201H35.297  c-3.971,0-7.201-3.23-7.201-7.201v-5.064c0-3.971,3.23-7.201,7.201-7.201h18.951c3.971,0,7.199,3.23,7.199,7.201V66.649z   M76.703,36.95h-7.199v7.199c0,0.663-0.537,1.201-1.201,1.201c-0.662,0-1.199-0.538-1.199-1.201V36.95h-7.199  c-0.664,0-1.201-0.537-1.201-1.2s0.537-1.2,1.201-1.2h7.199v-7.199c0-0.664,0.537-1.201,1.199-1.201  c0.664,0,1.201,0.537,1.201,1.201v7.199h7.199c0.662,0,1.201,0.537,1.201,1.2S77.365,36.95,76.703,36.95z"/></svg>