<svg version="1.1" id="Layer_1" xmlns="http://www.w3.org/2000/svg" xmlns:xlink="http://www.w3.org/1999/xlink" x="0px" y="0px"
	 width="100%" viewBox="0 0 1437 1437" enable-background="new 0 0 1437 1437" xml:space="preserve">
<path fill="#F2AC2A" opacity="1.000000" stroke="none" 
	d="
M1.000008,728.000000 
	C1.000000,722.645081 1.000000,717.290100 1.373651,711.247314 
	C2.164106,699.302429 2.289218,688.025146 3.069599,676.793396 
	C4.106791,661.865417 5.305644,646.931396 7.076891,632.076477 
	C9.034001,615.662720 10.738356,599.118652 14.305763,583.019836 
	C20.087194,556.929688 26.509420,530.923096 34.084362,505.302094 
	C46.536045,463.186279 63.399651,422.747253 84.489861,384.189484 
	C94.296417,366.260803 104.277924,348.346588 115.501266,331.295410 
	C128.444168,311.631836 142.288223,292.493134 156.777603,273.935944 
	C169.931305,257.089447 183.638199,240.504044 198.614166,225.293121 
	C218.696457,204.895706 240.067093,185.747726 261.242676,166.456390 
	C268.311981,160.016113 276.481628,154.783646 284.517120,149.180466 
	C289.920685,149.518661 294.955444,149.675430 300.456604,149.888214 
	C311.898193,150.005890 322.873352,150.067566 333.883118,150.588608 
	C333.945282,182.640793 333.949554,214.233704 334.054657,245.826263 
	C334.061401,247.854538 334.847809,249.880219 335.398254,251.909943 
	C335.525024,251.912796 335.763214,251.825699 336.171875,251.977020 
	C338.864777,252.420502 341.147705,252.954193 343.433533,252.966904 
	C362.930267,253.075409 382.427490,253.089340 402.038879,253.277222 
	C402.487885,253.418488 402.822662,253.414154 403.615662,253.407608 
	C416.995728,253.414734 429.917542,253.424057 442.985657,253.577515 
	C443.369934,253.858871 443.616760,253.977661 443.925659,254.539093 
	C443.980133,285.691956 443.931305,316.384003 444.072906,347.075134 
	C444.084930,349.680267 445.368805,352.279572 446.195740,354.988220 
	C446.329681,355.094879 446.666534,355.156372 447.069183,355.337585 
	C465.991455,355.636322 484.511108,355.753906 503.495544,355.916870 
	C520.335205,355.907990 536.709961,355.853729 553.317688,355.880310 
	C553.550598,355.961212 554.011353,356.136780 554.013428,356.593536 
	C554.004333,390.657104 553.993103,424.263916 553.606628,458.069641 
	C551.127258,458.512329 549.023193,458.968781 546.919006,458.969482 
	C441.955994,459.004272 336.992950,458.998993 232.029922,459.006592 
	C229.700043,459.006775 227.370178,459.105560 224.713928,459.409332 
	C224.258362,461.809692 224.017746,463.958984 224.016174,466.108459 
	C223.967117,532.740295 223.941437,599.372192 223.942169,666.027954 
	C223.972168,666.051819 224.021164,665.992798 223.550568,665.995483 
	C189.134735,665.998779 155.189423,665.978516 121.244331,666.052856 
	C119.242180,666.057251 117.241707,666.823730 115.156494,667.682434 
	C115.052200,735.552551 115.031067,802.975769 115.020836,870.398987 
	C115.020714,871.226562 115.160545,872.054199 115.328613,873.222168 
	C116.806274,873.799805 118.190369,874.037109 119.949944,874.514893 
	C128.885971,874.781372 137.446503,874.807495 146.471924,874.892761 
	C172.579010,874.990234 198.221222,875.028625 223.899490,875.530151 
	C223.956970,878.489868 223.997070,880.986389 223.997147,883.482910 
	C224.000336,979.195007 223.993469,1074.907104 224.036057,1170.619263 
	C224.037140,1173.058594 224.576050,1175.497559 224.913666,1178.332397 
	C225.200241,1180.505249 225.437302,1182.282471 226.025955,1184.336426 
	C228.694580,1184.741821 231.011581,1184.981689 233.328644,1184.982422 
	C300.100098,1185.002563 366.871582,1185.000488 433.643036,1184.993408 
	C436.802582,1184.993042 439.962097,1184.914307 443.314087,1184.900879 
	C443.506561,1184.929810 443.891479,1184.987427 443.939026,1185.455688 
	C444.016144,1251.555908 444.045685,1317.187988 443.703613,1382.881348 
	C435.089417,1379.367676 426.734497,1376.028931 418.624390,1372.175171 
	C388.843323,1358.024048 359.556091,1342.894897 332.139130,1324.510864 
	C314.334747,1312.572144 296.756683,1300.223022 279.774506,1287.151855 
	C263.368896,1274.524414 247.114258,1261.517822 232.121277,1247.279419 
	C207.613647,1224.005249 183.483002,1200.238403 162.838852,1173.301514 
	C150.682877,1157.440186 137.933487,1141.941528 126.974754,1125.277588 
	C112.515007,1103.290039 98.612762,1080.821167 86.204788,1057.631470 
	C73.709908,1034.279419 62.314644,1010.207581 52.338234,985.678101 
	C43.193932,963.194641 35.875710,939.886719 29.072924,916.557190 
	C23.096556,896.062012 18.463051,875.133545 14.155395,854.207336 
	C10.990944,838.834656 8.957749,823.199036 7.071949,807.601868 
	C5.275337,792.742371 4.093359,777.796448 3.076560,762.858887 
	C2.345144,752.113831 2.350004,741.319214 1.954617,730.549438 
	C1.923032,729.689087 1.331391,728.849304 1.000008,728.000000 
z"/>
<path fill="#F2AC2A" opacity="1.000000" stroke="none" 
	d="
M1438.000000,696.000000 
	C1438.000000,711.687561 1438.000000,727.375122 1437.626343,743.751587 
	C1436.502686,756.968384 1435.893433,769.506897 1434.960083,782.021179 
	C1434.153076,792.840637 1433.413208,803.695679 1431.861694,814.421814 
	C1429.616089,829.946716 1427.338989,845.522949 1423.861084,860.800842 
	C1418.289307,885.277161 1412.661377,909.815125 1405.302246,933.788330 
	C1398.465210,956.061035 1389.562012,977.717590 1381.154419,999.485474 
	C1370.394653,1027.343872 1356.653687,1053.815918 1341.625122,1079.546997 
	C1323.785645,1110.091064 1304.547729,1139.790283 1281.588745,1166.816162 
	C1264.941528,1186.412354 1248.029907,1205.810303 1230.564575,1224.674927 
	C1220.801514,1235.220337 1209.967529,1244.842773 1199.081299,1254.263184 
	C1183.928101,1267.375977 1168.517090,1280.218384 1152.782837,1292.626587 
	C1120.296265,1318.245728 1084.998291,1339.580811 1048.401367,1358.677002 
	C1031.322388,1367.588745 1013.371521,1374.829590 995.864258,1382.374756 
	C995.938293,1332.599976 995.954041,1283.278076 995.994995,1233.956055 
	C996.008545,1217.628662 996.087036,1201.301270 996.319824,1184.949219 
	C996.503906,1184.924683 996.871643,1184.871948 997.348450,1184.942627 
	C1068.507690,1185.008057 1139.190063,1185.010254 1209.872559,1184.955078 
	C1211.590698,1184.953735 1213.308228,1184.313843 1215.034668,1183.999023 
	C1215.043213,1184.026245 1215.098633,1184.039917 1215.335693,1183.697998 
	C1215.715210,1181.040649 1215.981689,1178.725220 1215.982178,1176.409668 
	C1216.002930,1078.626099 1215.998901,980.842468 1216.005737,883.058899 
	C1216.005981,880.394836 1216.091553,877.730835 1216.592285,875.030762 
	C1242.692383,874.938416 1268.337402,874.882141 1294.448730,874.890015 
	C1303.419189,874.727173 1311.923340,874.500122 1320.755127,874.227783 
	C1322.071289,873.823486 1323.059937,873.464355 1324.191650,872.951599 
	C1324.334595,872.797974 1324.439331,872.391357 1324.607666,871.986572 
	C1324.762573,860.715027 1324.749390,849.848267 1324.773804,838.515625 
	C1324.784912,800.046082 1324.758423,762.042480 1324.818359,723.574585 
	C1324.936768,705.544739 1324.993164,687.979187 1324.953247,670.413879 
	C1324.950073,669.034668 1324.275391,667.657043 1323.458496,666.182922 
	C1319.173584,666.058044 1315.343140,666.009155 1311.512573,666.003174 
	C1279.697876,665.953247 1247.883057,665.911316 1216.024414,665.666016 
	C1215.980591,665.465149 1215.876221,665.067444 1215.910645,664.596252 
	C1215.963135,621.362549 1215.990356,578.599976 1215.963745,535.837463 
	C1215.962769,534.230103 1215.439331,532.622986 1215.100586,530.549316 
	C1215.041870,506.513245 1215.041870,482.943542 1215.041870,459.000000 
	C1211.267212,459.000000 1208.447144,459.000000 1205.626953,459.000000 
	C1101.808105,459.000000 997.989136,459.001465 894.170227,458.990509 
	C891.842163,458.990265 889.514038,458.849152 887.143311,458.321411 
	C887.065918,453.092041 887.117371,448.312378 886.974243,443.538574 
	C886.797974,437.659424 886.459656,431.785156 886.127686,425.449707 
	C886.037903,402.034058 886.011719,379.077545 886.205139,356.052063 
	C886.424744,355.983154 886.870056,355.866577 887.347046,355.937988 
	C911.192810,355.970062 934.561584,355.930725 958.403076,355.927734 
	C961.703430,355.976044 964.532593,356.052887 967.358459,355.987885 
	C975.973022,355.789795 984.586304,355.536987 993.380615,355.242493 
	C993.561218,355.179474 993.866455,354.948975 994.220947,354.769470 
	C995.030579,352.507751 995.855774,350.429443 995.877747,348.342682 
	C995.980591,338.581635 995.862061,328.818268 995.881958,318.584778 
	C995.960327,300.792175 996.000427,283.470459 995.959351,266.148987 
	C995.955994,264.736176 995.398438,263.324677 995.064331,261.508942 
	C994.966370,259.758942 994.902527,258.412567 994.898682,256.667786 
	C995.410889,255.122101 995.863220,253.974869 996.755554,252.881866 
	C1030.977173,252.958649 1064.759033,253.016907 1098.540283,252.919464 
	C1100.681030,252.913300 1102.818481,251.695724 1105.067871,250.838379 
	C1105.178467,250.635010 1105.305664,250.189926 1105.484131,249.801086 
	C1105.740601,234.921234 1105.818726,220.430222 1105.929688,205.475388 
	C1106.032837,186.705841 1106.103149,168.400101 1106.627686,150.070160 
	C1117.850708,150.030258 1128.620117,150.078979 1139.388062,149.970062 
	C1144.325073,149.920120 1149.258789,149.560410 1154.341309,149.120300 
	C1154.541138,148.730576 1154.593994,148.561722 1154.706543,148.593506 
	C1155.135742,148.962845 1155.505127,149.131516 1156.053223,149.448898 
	C1156.500854,149.767471 1156.794434,149.854858 1157.406616,150.031616 
	C1174.087646,163.922440 1191.196899,176.879669 1206.675171,191.557007 
	C1225.211060,209.133835 1242.986328,227.620361 1259.911987,246.755859 
	C1274.999268,263.813049 1288.784180,282.059540 1302.596313,300.198059 
	C1322.569946,326.428009 1339.751587,354.533997 1354.756958,383.825592 
	C1366.093994,405.956329 1376.820068,428.524475 1385.913452,451.647034 
	C1396.051392,477.426361 1405.063477,503.758270 1412.692505,530.386292 
	C1421.966309,562.754456 1428.795410,595.792542 1431.974365,629.417175 
	C1433.942749,650.234924 1435.331543,671.107361 1437.029175,691.951233 
	C1437.140381,693.318115 1437.666748,694.651184 1438.000000,696.000000 
z"/>
<path fill="#F2AC2A" opacity="1.000000" stroke="none" 
	d="
M711.000000,0.999992 
	C716.354919,1.000000 721.709900,1.000000 727.752686,1.373650 
	C742.027222,2.164871 755.615723,2.532012 769.199646,3.024823 
	C774.638977,3.222157 780.100586,3.432224 785.495789,4.094802 
	C800.453369,5.931703 815.437317,7.664671 830.306030,10.083297 
	C847.226929,12.835752 864.140564,15.808645 880.867920,19.535910 
	C911.312378,26.319679 941.112732,35.446041 970.380432,46.223091 
	C978.544800,49.229408 986.395447,53.087879 994.246826,57.050842 
	C994.081787,87.590919 994.059937,117.635582 993.780457,147.796600 
	C993.346375,147.979218 993.169983,148.045471 992.774780,148.011871 
	C992.556030,147.912003 992.099182,147.761475 991.735229,147.554321 
	C990.385498,147.232941 989.399719,147.019455 988.413879,147.018875 
	C956.344177,146.999832 924.274475,146.991440 892.204834,147.031586 
	C890.754761,147.033401 889.305298,147.501694 887.544922,147.824768 
	C886.510681,148.283569 885.787048,148.670319 884.807861,149.382416 
	C884.413513,158.815491 884.274902,167.923203 884.086670,177.495285 
	C884.001892,202.263962 883.966736,226.568253 883.569458,250.920776 
	C882.481018,251.036896 881.754822,251.104782 880.623291,251.277344 
	C875.470825,251.642548 870.723694,251.903091 865.786316,252.098099 
	C865.596069,252.032562 865.201965,251.951157 864.873413,251.662491 
	C863.726501,251.253571 862.908081,251.028870 862.089600,251.028229 
	C834.960266,251.006790 807.830872,250.994461 780.701599,251.042786 
	C779.449951,251.045029 778.199341,251.619400 776.675781,251.985962 
	C776.021423,252.385864 775.639526,252.727112 775.141113,253.290405 
	C774.963379,253.668045 774.902283,253.823654 774.619385,254.327881 
	C774.264954,262.818237 774.026428,270.959869 774.016968,279.101746 
	C773.947815,338.691498 773.924622,398.281372 773.428223,457.914337 
	C737.350830,457.928772 701.732117,457.900085 666.083252,457.411682 
	C666.035400,396.257874 666.027283,335.563721 665.962646,274.869629 
	C665.960205,272.600464 665.407532,270.331909 665.070374,267.594543 
	C664.906738,262.431763 664.784058,257.737549 664.480591,252.796265 
	C663.503174,252.418167 662.706665,252.287125 661.741455,252.084076 
	C661.572754,252.012054 661.209412,251.961838 660.838257,251.733337 
	C659.496338,251.339432 658.525757,251.030594 657.554810,251.029541 
	C631.192871,251.000824 604.830872,250.990784 578.468994,251.041245 
	C577.235596,251.043610 576.003357,251.632767 574.583069,251.990204 
	C574.395569,252.031769 574.034363,252.162415 573.566162,252.101685 
	C568.084229,252.084259 563.070374,252.127579 557.735718,252.093597 
	C556.888855,251.679993 556.362976,251.343689 555.890076,250.541412 
	C555.891113,240.424408 555.839050,230.773346 555.842529,220.648865 
	C555.930847,197.876312 555.984131,175.577148 555.947327,153.278107 
	C555.945007,151.890671 555.235046,150.504410 554.535828,149.000549 
	C553.145813,148.555573 552.074280,148.227631 550.647339,147.690674 
	C549.318298,147.323608 548.344666,147.028519 547.370850,147.027496 
	C522.155457,147.000809 496.940063,146.993134 471.724792,147.037262 
	C470.450073,147.039490 469.176178,147.534683 467.443268,147.862549 
	C460.342712,148.002792 453.700836,148.080841 446.785492,148.043732 
	C446.334320,147.841843 446.156586,147.755081 445.992432,147.227753 
	C446.004944,129.015137 446.040039,111.243004 445.990662,93.471100 
	C445.955170,80.687744 445.806946,67.904701 446.098663,55.064423 
	C458.100739,50.637165 469.593170,45.907616 481.353729,41.981075 
	C498.997009,36.090458 516.689697,30.256603 534.620911,25.346407 
	C550.824036,20.909431 567.280762,17.236055 583.799744,14.161318 
	C600.049927,11.136607 616.488403,9.041306 632.901672,6.999928 
	C646.437561,5.316426 660.036987,4.002376 673.646179,3.092707 
	C685.387024,2.307917 697.181946,2.339375 708.950806,1.946002 
	C709.643677,1.922844 710.317383,1.328517 711.000000,0.999992 
z"/>
<path fill="#FFFFFF" opacity="1.000000" stroke="none" 
	d="
M710.531372,0.999992 
	C710.317383,1.328517 709.643677,1.922844 708.950806,1.946002 
	C697.181946,2.339375 685.387024,2.307917 673.646179,3.092707 
	C660.036987,4.002376 646.437561,5.316426 632.901672,6.999928 
	C616.488403,9.041306 600.049927,11.136607 583.799744,14.161318 
	C567.280762,17.236055 550.824036,20.909431 534.620911,25.346407 
	C516.689697,30.256603 498.997009,36.090458 481.353729,41.981075 
	C469.593170,45.907616 458.100739,50.637165 445.866760,55.147522 
	C444.828857,55.571129 444.412537,55.854538 443.656982,56.237068 
	C424.222870,65.404648 404.675262,73.643105 386.147369,83.750786 
	C362.769043,96.504570 340.037964,110.485847 317.400208,124.537704 
	C307.104767,130.928360 297.703888,138.760239 287.581055,145.968048 
	C286.511414,146.664490 285.757996,147.331268 284.796814,148.103058 
	C284.323608,148.405685 284.176697,148.669357 284.148285,148.999054 
	C276.481628,154.783646 268.311981,160.016113 261.242676,166.456390 
	C240.067093,185.747726 218.696457,204.895706 198.614166,225.293121 
	C183.638199,240.504044 169.931305,257.089447 156.777603,273.935944 
	C142.288223,292.493134 128.444168,311.631836 115.501266,331.295410 
	C104.277924,348.346588 94.296417,366.260803 84.489861,384.189484 
	C63.399651,422.747253 46.536045,463.186279 34.084362,505.302094 
	C26.509420,530.923096 20.087194,556.929688 14.305763,583.019836 
	C10.738356,599.118652 9.034001,615.662720 7.076891,632.076477 
	C5.305644,646.931396 4.106791,661.865417 3.069599,676.793396 
	C2.289218,688.025146 2.164106,699.302429 1.373651,710.779724 
	C1.000000,474.406250 1.000000,237.812469 1.000000,1.000000 
	C237.354187,1.000000 473.708435,1.000000 710.531372,0.999992 
z"/>
<path fill="#FFFFFF" opacity="1.000000" stroke="none" 
	d="
M994.390015,56.555420 
	C986.395447,53.087879 978.544800,49.229408 970.380432,46.223091 
	C941.112732,35.446041 911.312378,26.319679 880.867920,19.535910 
	C864.140564,15.808645 847.226929,12.835752 830.306030,10.083297 
	C815.437317,7.664671 800.453369,5.931703 785.495789,4.094802 
	C780.100586,3.432224 774.638977,3.222157 769.199646,3.024823 
	C755.615723,2.532012 742.027222,2.164871 728.220276,1.373650 
	C964.592957,1.000000 1201.185913,1.000000 1438.000000,1.000000 
	C1438.000000,232.354187 1438.000000,463.708435 1438.000000,695.531372 
	C1437.666748,694.651184 1437.140381,693.318115 1437.029175,691.951233 
	C1435.331543,671.107361 1433.942749,650.234924 1431.974365,629.417175 
	C1428.795410,595.792542 1421.966309,562.754456 1412.692505,530.386292 
	C1405.063477,503.758270 1396.051392,477.426361 1385.913452,451.647034 
	C1376.820068,428.524475 1366.093994,405.956329 1354.756958,383.825592 
	C1339.751587,354.533997 1322.569946,326.428009 1302.596313,300.198059 
	C1288.784180,282.059540 1274.999268,263.813049 1259.911987,246.755859 
	C1242.986328,227.620361 1225.211060,209.133835 1206.675171,191.557007 
	C1191.196899,176.879669 1174.087646,163.922440 1157.270020,149.812012 
	C1156.517822,149.380432 1156.196167,149.340302 1155.874634,149.300171 
	C1155.505127,149.131516 1155.135742,148.962845 1154.559082,148.454239 
	C1154.351929,148.114319 1153.975952,147.983719 1153.857300,147.677734 
	C1152.809692,146.959305 1151.880859,146.546875 1150.657715,145.951324 
	C1148.740479,144.204330 1147.266357,142.440445 1145.472412,141.106400 
	C1114.024170,117.719429 1080.685669,97.376755 1045.831299,79.498947 
	C1039.166260,76.080261 1032.489624,72.646988 1025.626831,69.660187 
	C1015.498169,65.252052 1005.197815,61.238232 994.846863,56.906425 
	C994.723083,56.756393 994.390015,56.555420 994.390015,56.555420 
z"/>
<path fill="#FFFFFF" opacity="1.000000" stroke="none" 
	d="
M1.000008,728.468628 
	C1.331391,728.849304 1.923032,729.689087 1.954617,730.549438 
	C2.350004,741.319214 2.345144,752.113831 3.076560,762.858887 
	C4.093359,777.796448 5.275337,792.742371 7.071949,807.601868 
	C8.957749,823.199036 10.990944,838.834656 14.155395,854.207336 
	C18.463051,875.133545 23.096556,896.062012 29.072924,916.557190 
	C35.875710,939.886719 43.193932,963.194641 52.338234,985.678101 
	C62.314644,1010.207581 73.709908,1034.279419 86.204788,1057.631470 
	C98.612762,1080.821167 112.515007,1103.290039 126.974754,1125.277588 
	C137.933487,1141.941528 150.682877,1157.440186 162.838852,1173.301514 
	C183.483002,1200.238403 207.613647,1224.005249 232.121277,1247.279419 
	C247.114258,1261.517822 263.368896,1274.524414 279.774506,1287.151855 
	C296.756683,1300.223022 314.334747,1312.572144 332.139130,1324.510864 
	C359.556091,1342.894897 388.843323,1358.024048 418.624390,1372.175171 
	C426.734497,1376.028931 435.089417,1379.367676 443.925232,1383.015381 
	C444.956573,1383.313721 445.394653,1383.539673 446.183533,1383.914062 
	C526.442871,1416.912598 609.466125,1435.115723 695.962219,1437.322632 
	C695.985718,1437.547729 696.000000,1438.000000 696.000000,1438.000000 
	C464.405457,1438.000000 232.810913,1438.000000 1.000000,1438.000000 
	C1.000000,1201.645874 1.000000,965.291565 1.000008,728.468628 
z"/>
<path fill="#FFFFFF" opacity="1.000000" stroke="none" 
	d="
M995.815918,1382.827637 
	C1013.371521,1374.829590 1031.322388,1367.588745 1048.401367,1358.677002 
	C1084.998291,1339.580811 1120.296265,1318.245728 1152.782837,1292.626587 
	C1168.517090,1280.218384 1183.928101,1267.375977 1199.081299,1254.263184 
	C1209.967529,1244.842773 1220.801514,1235.220337 1230.564575,1224.674927 
	C1248.029907,1205.810303 1264.941528,1186.412354 1281.588745,1166.816162 
	C1304.547729,1139.790283 1323.785645,1110.091064 1341.625122,1079.546997 
	C1356.653687,1053.815918 1370.394653,1027.343872 1381.154419,999.485474 
	C1389.562012,977.717590 1398.465210,956.061035 1405.302246,933.788330 
	C1412.661377,909.815125 1418.289307,885.277161 1423.861084,860.800842 
	C1427.338989,845.522949 1429.616089,829.946716 1431.861694,814.421814 
	C1433.413208,803.695679 1434.153076,792.840637 1434.960083,782.021179 
	C1435.893433,769.506897 1436.502686,756.968384 1437.626343,744.220215 
	C1438.000000,975.260437 1438.000000,1206.520874 1438.000000,1438.000000 
	C1206.979126,1438.000000 975.958252,1438.000000 744.478149,1437.768799 
	C744.018982,1437.537720 744.079041,1437.078857 744.542480,1437.048096 
	C752.438232,1436.678345 759.883606,1436.514282 767.299805,1435.959595 
	C778.453247,1435.125366 789.634949,1434.389893 800.716858,1432.941406 
	C818.740845,1430.585327 836.751770,1428.022705 854.663879,1424.940674 
	C883.566650,1419.967529 911.932190,1412.618408 939.765564,1403.437866 
	C957.991455,1397.426270 975.887939,1390.415894 994.207520,1383.829468 
	C994.927307,1383.479980 995.371582,1383.153931 995.815918,1382.827637 
z"/>
<path fill="#99A770" opacity="1.000000" stroke="none" 
	d="
M744.079041,1437.078857 
	C744.079041,1437.078857 744.018982,1437.537720 744.009521,1437.768799 
	C728.312439,1438.000000 712.624878,1438.000000 696.468628,1438.000000 
	C696.000000,1438.000000 695.985718,1437.547729 696.432007,1437.286865 
	C712.611816,1437.043579 728.345459,1437.061157 744.079041,1437.078857 
z"/>
<path fill="#63A499" opacity="1.000000" stroke="none" 
	d="
M744.542480,1437.048096 
	C728.345459,1437.061157 712.611816,1437.043579 696.408447,1437.061768 
	C609.466125,1435.115723 526.442871,1416.912598 446.234802,1383.467773 
	C445.948029,1319.924194 445.989563,1256.975464 445.885132,1194.026733 
	C445.880127,1191.012573 444.585541,1188.000488 443.891479,1184.987427 
	C443.891479,1184.987427 443.506561,1184.929810 442.928772,1184.729614 
	C440.535126,1184.354248 438.719299,1184.026123 436.903442,1184.026001 
	C366.493744,1184.018555 296.084045,1184.041016 225.674362,1184.059692 
	C225.437302,1182.282471 225.200241,1180.505249 224.963272,1177.874512 
	C224.974609,1077.776489 224.987625,978.531921 224.980270,879.287354 
	C224.980164,877.801758 224.727295,876.316223 224.328796,874.603394 
	C221.147369,873.916809 218.231079,873.068970 215.311462,873.057373 
	C181.952957,872.925232 148.593933,872.920532 115.235054,872.881775 
	C115.160545,872.054199 115.020714,871.226562 115.020836,870.398987 
	C115.031067,802.975769 115.052200,735.552551 115.610001,667.632324 
	C149.853775,667.090210 183.560165,667.064209 217.266281,666.957031 
	C219.518906,666.949890 221.769577,666.328491 224.021164,665.992798 
	C224.021164,665.992798 223.972168,666.051819 224.224121,665.715637 
	C224.650711,663.073303 224.976562,660.767273 224.977982,658.460999 
	C225.018677,592.026794 225.026871,525.592590 225.040298,459.158386 
	C227.370178,459.105560 229.700043,459.006775 232.029922,459.006592 
	C336.992950,458.998993 441.955994,459.004272 546.919006,458.969482 
	C549.023193,458.968781 551.127258,458.512329 553.921021,457.866486 
	C555.013489,455.365814 555.761536,453.268097 555.766968,451.168457 
	C555.843018,421.839661 555.858948,392.510468 555.738953,363.181976 
	C555.729370,360.831268 554.613281,358.485077 554.011353,356.136780 
	C554.011353,356.136780 553.550598,355.961212 552.940186,355.694702 
	C535.851929,355.322662 519.374084,355.217133 502.434723,355.085754 
	C483.537659,355.092041 465.102112,355.124207 446.666534,355.156372 
	C446.666534,355.156372 446.329681,355.094879 446.171570,354.528198 
	C446.004456,322.987457 446.050293,292.013092 445.899292,261.039703 
	C445.884613,258.028137 444.653961,255.022476 443.572510,251.949600 
	C440.019592,251.645905 436.882538,251.208725 433.744049,251.197998 
	C401.161560,251.086548 368.578857,251.043732 335.998901,250.514587 
	C336.000702,219.825684 336.016388,189.604050 335.962921,159.382523 
	C335.959198,157.276062 335.442017,155.170532 335.096985,152.683258 
	C334.883240,151.544006 334.736115,150.786041 334.449707,149.794373 
	C333.635559,149.314163 332.960663,149.067657 331.916351,148.594452 
	C329.582886,148.209167 327.619690,147.925476 325.654694,147.912369 
	C313.127106,147.828796 300.599182,147.804840 288.044983,147.457489 
	C287.978180,146.748627 287.937714,146.343506 287.897247,145.938385 
	C297.703888,138.760239 307.104767,130.928360 317.400208,124.537704 
	C340.037964,110.485847 362.769043,96.504570 386.147369,83.750786 
	C404.675262,73.643105 424.222870,65.404648 443.698792,56.694431 
	C444.104675,85.163940 444.090698,113.275406 444.232635,141.386078 
	C444.243225,143.483047 445.370605,145.574387 445.978821,147.668335 
	C446.156586,147.755081 446.334320,147.841843 447.136597,148.250854 
	C449.239685,148.728500 450.717010,149.006912 452.196899,149.021255 
	C486.403717,149.353058 520.610840,149.656174 554.875732,150.434052 
	C554.987488,174.267715 555.041382,197.631943 555.061523,221.462921 
	C555.018555,225.069519 554.916321,228.212402 555.019348,231.348557 
	C555.234619,237.903381 555.558044,244.454651 555.837036,251.007370 
	C556.362976,251.343689 556.888855,251.679993 558.091370,252.288147 
	C563.856750,252.427460 568.945557,252.294937 574.034363,252.162415 
	C574.034363,252.162415 574.395569,252.031769 574.883057,252.054688 
	C575.572083,252.108978 575.773682,252.140350 576.342102,252.356262 
	C577.857483,252.692169 579.006042,252.974487 580.154785,252.975662 
	C604.984680,253.001251 629.814575,253.009415 654.644409,252.960312 
	C656.096375,252.957443 657.547302,252.442581 659.367798,252.146332 
	C660.227661,252.071732 660.718567,252.016785 661.209412,251.961838 
	C661.209412,251.961838 661.572754,252.012054 661.981567,252.261230 
	C663.147339,252.688034 663.904358,252.865677 664.661377,253.043335 
	C664.784058,257.737549 664.906738,262.431763 665.024292,268.052856 
	C665.012817,312.960907 664.990723,356.942139 665.007324,400.923340 
	C665.014465,419.913330 665.101440,438.903320 665.449463,458.172394 
	C666.717896,458.631256 667.688843,458.967346 668.660095,458.968170 
	C702.658813,458.997650 736.657532,459.008759 770.656189,458.951233 
	C772.054077,458.948853 773.450745,458.260895 774.895203,457.432617 
	C774.961609,399.614258 774.989014,342.255585 774.992371,284.896942 
	C774.992981,274.591034 774.894165,264.285156 774.841248,253.979248 
	C774.902283,253.823654 774.963379,253.668045 775.592896,253.274734 
	C803.192749,253.024277 830.224243,253.030319 857.255615,252.964813 
	C859.535645,252.959290 861.814514,252.474335 864.371704,252.150146 
	C864.833618,252.042511 865.017822,251.996826 865.201965,251.951157 
	C865.201965,251.951157 865.596069,252.032562 866.153137,252.287415 
	C871.525940,252.534760 876.564758,254.859314 881.028564,251.172668 
	C881.754822,251.104782 882.481018,251.036896 883.805542,250.722382 
	C884.629395,249.680557 884.854980,248.885345 885.263550,247.869904 
	C885.585693,247.106094 885.724976,246.562515 885.882812,245.573364 
	C885.875916,242.739838 885.850403,240.351868 885.863464,237.499023 
	C885.928833,210.218430 885.955627,183.402740 885.982483,156.587036 
	C885.990051,149.073135 885.990112,149.068497 893.734619,149.067902 
	C924.215149,149.065567 954.695679,149.089569 985.176086,149.024673 
	C987.782471,149.019119 990.387756,148.429840 992.993530,148.111725 
	C993.169983,148.045471 993.346375,147.979218 994.040405,147.556671 
	C995.033325,143.940918 995.942139,140.677963 995.915771,137.422562 
	C995.698975,110.633072 995.308472,83.844986 994.970642,57.056465 
	C1005.197815,61.238232 1015.498169,65.252052 1025.626831,69.660187 
	C1032.489624,72.646988 1039.166260,76.080261 1045.831299,79.498947 
	C1080.685669,97.376755 1114.024170,117.719429 1145.472412,141.106400 
	C1147.266357,142.440445 1148.740479,144.204330 1150.552246,146.164978 
	C1150.490601,146.963348 1150.240112,147.364899 1149.522705,147.797455 
	C1137.351807,147.849808 1125.647461,147.821350 1113.944336,147.935883 
	C1111.697632,147.957855 1109.456543,148.541824 1106.946289,148.935623 
	C1106.505615,149.062241 1106.331299,149.119736 1105.866943,149.463379 
	C1105.390869,150.550552 1105.042236,151.351776 1105.043091,152.152603 
	C1105.062866,170.136948 1105.120972,188.121246 1105.121094,206.563324 
	C1105.148926,221.410706 1105.227295,235.800308 1105.305664,250.189926 
	C1105.305664,250.189926 1105.178467,250.635010 1104.602539,250.842331 
	C1071.195557,251.088089 1038.364258,251.082703 1005.533691,251.236923 
	C1002.458557,251.251358 999.388123,252.273422 996.315552,252.827637 
	C995.863220,253.974869 995.410889,255.122101 994.700928,257.022217 
	C994.295593,260.085602 994.024536,262.395813 994.018982,264.706696 
	C993.946167,294.787415 993.911072,324.868195 993.866455,354.948975 
	C993.866455,354.948975 993.561218,355.179474 992.900024,355.148682 
	C980.861511,355.131866 969.484070,355.145844 957.633240,355.114929 
	C936.021057,355.050751 914.882263,355.005219 893.743652,355.049927 
	C891.451904,355.054779 889.161255,355.581787 886.870056,355.866577 
	C886.870056,355.866577 886.424744,355.983154 885.940674,356.310974 
	C885.014160,358.894836 884.193420,361.149750 884.186707,363.407104 
	C884.099609,392.644836 884.086853,421.883118 884.206177,451.120636 
	C884.215759,453.475739 885.333740,455.826355 886.107544,458.346375 
	C886.548706,458.712860 886.851196,458.799561 887.185974,458.773743 
	C889.514038,458.849152 891.842163,458.990265 894.170227,458.990509 
	C997.989136,459.001465 1101.808105,459.000000 1205.626953,459.000000 
	C1208.447144,459.000000 1211.267212,459.000000 1215.041870,459.000000 
	C1215.041870,482.943542 1215.041870,506.513245 1215.048950,531.012207 
	C1215.038086,574.894043 1215.011475,617.846558 1215.038696,660.799133 
	C1215.039673,662.222046 1215.584839,663.644653 1215.876221,665.067444 
	C1215.876221,665.067444 1215.980591,665.465149 1216.340576,665.928711 
	C1218.829102,666.594849 1220.957153,666.969055 1223.086426,666.974365 
	C1256.662231,667.058105 1290.238037,667.094360 1323.869385,667.595337 
	C1323.950928,684.601807 1323.951294,701.154541 1324.034546,717.706909 
	C1324.045166,719.818726 1324.488770,721.928284 1324.731812,724.038879 
	C1324.758423,762.042480 1324.784912,800.046082 1324.588501,838.881226 
	C1324.390137,850.605591 1324.414673,861.498474 1324.439209,872.391357 
	C1324.439331,872.391357 1324.334595,872.797974 1323.719238,872.930908 
	C1289.569336,873.043457 1256.034546,872.986084 1222.500366,873.081482 
	C1220.134399,873.088196 1217.771606,874.221191 1215.282471,875.295166 
	C1215.104980,878.256042 1215.006836,880.752319 1215.006592,883.248535 
	C1214.998535,961.195068 1214.992798,1039.141602 1215.004639,1117.088135 
	C1215.007935,1139.405396 1215.065796,1161.722656 1215.098633,1184.039917 
	C1215.098633,1184.039917 1215.043213,1184.026245 1214.563477,1184.007080 
	C1144.637085,1183.991577 1075.190552,1183.984619 1005.743958,1184.035889 
	C1002.786316,1184.038086 999.829102,1184.580933 996.871643,1184.871826 
	C996.871643,1184.871948 996.503906,1184.924683 996.036011,1185.217773 
	C995.053406,1188.752686 994.095764,1191.993530 994.089661,1195.236328 
	C993.970581,1258.108398 993.962769,1320.980591 993.932007,1383.852783 
	C975.887939,1390.415894 957.991455,1397.426270 939.765564,1403.437866 
	C911.932190,1412.618408 883.566650,1419.967529 854.663879,1424.940674 
	C836.751770,1428.022705 818.740845,1430.585327 800.716858,1432.941406 
	C789.634949,1434.389893 778.453247,1435.125366 767.299805,1435.959595 
	C759.883606,1436.514282 752.438232,1436.678345 744.542480,1437.048096 
M335.774048,1080.462769 
	C338.079437,1080.641846 340.384796,1080.976929 342.690216,1080.977539 
	C442.022614,1081.003540 541.354980,1081.000000 640.687378,1081.000000 
	C793.019226,1081.000000 945.351135,1081.004883 1097.682983,1080.954956 
	C1100.081665,1080.954102 1102.480103,1080.277832 1104.958496,1079.001465 
	C1104.971924,1078.168335 1104.996948,1077.335205 1104.996948,1076.502075 
	C1104.999023,907.174255 1104.999756,737.846375 1104.993286,568.518555 
	C1104.993286,567.020813 1104.894775,565.523071 1104.292236,563.422058 
	C1102.144409,563.281372 1099.996582,563.017639 1097.848755,563.017456 
	C846.091125,562.998962 594.333496,562.999878 342.575867,563.000671 
	C335.005096,563.000671 335.000702,563.005066 335.000671,570.583557 
	C334.999817,738.199829 334.999359,905.816101 335.007050,1073.432373 
	C335.007141,1075.596069 335.113281,1077.759888 335.774048,1080.462769 
M883.051758,1184.976685 
	C881.721252,1184.942017 880.390747,1184.876953 879.060242,1184.876953 
	C773.040771,1184.872192 667.021301,1184.871460 561.001831,1184.884399 
	C559.343994,1184.884644 557.686218,1185.059326 555.514771,1185.774902 
	C555.343079,1187.916992 555.022827,1190.059082 555.021484,1192.201294 
	C554.992859,1238.807983 554.987000,1285.414551 555.006836,1332.021240 
	C555.013184,1346.999878 555.105347,1361.978394 555.057861,1377.875610 
	C555.051453,1380.538940 555.012451,1383.202759 555.046753,1385.865601 
	C555.090881,1389.287720 556.769897,1391.120850 560.287659,1391.102417 
	C561.952393,1391.093750 563.617310,1391.126587 565.282104,1391.126587 
	C667.007874,1391.127930 768.733704,1391.159180 870.459473,1391.090088 
	C884.005920,1391.080933 885.688171,1394.351318 884.946167,1375.030762 
	C884.963745,1313.485474 884.989929,1251.940308 884.955933,1190.395020 
	C884.954956,1188.647461 884.313965,1186.900146 883.051758,1184.976685 
z"/>
<path fill="#A0C6D1" opacity="1.000000" stroke="none" 
	d="
M443.939026,1185.455688 
	C444.585541,1188.000488 445.880127,1191.012573 445.885132,1194.026733 
	C445.989563,1256.975464 445.948029,1319.924194 445.883972,1383.319336 
	C445.394653,1383.539673 444.956573,1383.313721 444.296875,1382.953857 
	C444.045685,1317.187988 444.016144,1251.555908 443.939026,1185.455688 
z"/>
<path fill="#D1BA6E" opacity="1.000000" stroke="none" 
	d="
M224.592377,874.830627 
	C224.727295,876.316223 224.980164,877.801758 224.980270,879.287354 
	C224.987625,978.531921 224.974609,1077.776489 224.913742,1177.479004 
	C224.576050,1175.497559 224.037140,1173.058594 224.036057,1170.619263 
	C223.993469,1074.907104 224.000336,979.195007 223.997147,883.482910 
	C223.997070,880.986389 223.956970,878.489868 224.072357,875.440796 
	C224.209167,874.888184 224.592377,874.830627 224.592377,874.830627 
z"/>
<path fill="#ACBD97" opacity="1.000000" stroke="none" 
	d="
M226.025955,1184.336426 
	C296.084045,1184.041016 366.493744,1184.018555 436.903442,1184.026001 
	C438.719299,1184.026123 440.535126,1184.354248 442.736298,1184.700684 
	C439.962097,1184.914307 436.802582,1184.993042 433.643036,1184.993408 
	C366.871582,1185.000488 300.100098,1185.002563 233.328644,1184.982422 
	C231.011581,1184.981689 228.694580,1184.741821 226.025955,1184.336426 
z"/>
<path fill="#C3DDE9" opacity="1.000000" stroke="none" 
	d="
M335.996216,250.981873 
	C368.578857,251.043732 401.161560,251.086548 433.744049,251.197998 
	C436.882538,251.208725 440.019592,251.645905 443.566650,252.217575 
	C443.965576,252.728439 443.955139,252.906845 443.656281,253.133850 
	C443.191681,253.266083 443.015533,253.349731 442.839355,253.433380 
	C429.917542,253.424057 416.995728,253.414734 403.317444,253.292816 
	C402.348816,253.164032 402.136719,253.147827 401.924591,253.131592 
	C382.427490,253.089340 362.930267,253.075409 343.433533,252.966904 
	C341.147705,252.954193 338.864777,252.420502 336.236755,251.767700 
	C335.892975,251.407059 335.996216,250.981873 335.996216,250.981873 
z"/>
<path fill="#ADBD97" opacity="1.000000" stroke="none" 
	d="
M224.713928,459.409363 
	C225.026871,525.592590 225.018677,592.026794 224.977982,658.460999 
	C224.976562,660.767273 224.650711,663.073303 224.194107,665.691772 
	C223.941437,599.372192 223.967117,532.740295 224.016174,466.108459 
	C224.017746,463.958984 224.258362,461.809692 224.713928,459.409363 
z"/>
<path fill="#9CC5D1" opacity="1.000000" stroke="none" 
	d="
M443.944733,253.085251 
	C443.955139,252.906845 443.965576,252.728439 443.981873,252.282043 
	C444.653961,255.022476 445.884613,258.028137 445.899292,261.039703 
	C446.050293,292.013092 446.004456,322.987457 446.037628,354.421570 
	C445.368805,352.279572 444.084930,349.680267 444.072906,347.075134 
	C443.931305,316.384003 443.980133,285.691956 443.964233,254.292328 
	C443.949615,253.584503 443.944733,253.085251 443.944733,253.085251 
z"/>
<path fill="#C4DEEC" opacity="1.000000" stroke="none" 
	d="
M554.013428,356.593536 
	C554.613281,358.485077 555.729370,360.831268 555.738953,363.181976 
	C555.858948,392.510468 555.843018,421.839661 555.766968,451.168457 
	C555.761536,453.268097 555.013489,455.365814 554.296265,457.667603 
	C553.993103,424.263916 554.004333,390.657104 554.013428,356.593536 
z"/>
<path fill="#D5E5F0" opacity="1.000000" stroke="none" 
	d="
M224.328796,874.603394 
	C224.592377,874.830627 224.209167,874.888184 224.036301,874.977539 
	C198.221222,875.028625 172.579010,874.990234 146.109192,874.698853 
	C136.712555,874.388733 128.143509,874.331604 119.574455,874.274475 
	C118.190369,874.037109 116.806274,873.799805 115.328613,873.222168 
	C148.593933,872.920532 181.952957,872.925232 215.311462,873.057373 
	C218.231079,873.068970 221.147369,873.916809 224.328796,874.603394 
z"/>
<path fill="#89B5A5" opacity="1.000000" stroke="none" 
	d="
M223.550568,665.995483 
	C221.769577,666.328491 219.518906,666.949890 217.266281,666.957031 
	C183.560165,667.064209 149.853775,667.090210 115.693954,667.185425 
	C117.241707,666.823730 119.242180,666.057251 121.244331,666.052856 
	C155.189423,665.978516 189.134735,665.998779 223.550568,665.995483 
z"/>
<path fill="#D5BD73" opacity="1.000000" stroke="none" 
	d="
M334.588959,150.028076 
	C334.736115,150.786041 334.883240,151.544006 335.051819,153.143768 
	C335.048126,171.973984 334.980255,189.962494 335.011292,207.950821 
	C335.036591,222.603027 335.180298,237.255020 335.271484,251.907104 
	C334.847809,249.880219 334.061401,247.854538 334.054657,245.826263 
	C333.949554,214.233704 333.945282,182.640793 334.066467,150.548706 
	C334.215210,150.049438 334.588959,150.028076 334.588959,150.028076 
z"/>
<path fill="#76B0AD" opacity="1.000000" stroke="none" 
	d="
M335.398254,251.909943 
	C335.180298,237.255020 335.036591,222.603027 335.011292,207.950821 
	C334.980255,189.962494 335.048126,171.973984 335.118408,153.525055 
	C335.442017,155.170532 335.959198,157.276062 335.962921,159.382523 
	C336.016388,189.604050 336.000702,219.825684 335.998901,250.514587 
	C335.996216,250.981873 335.892975,251.407059 335.828094,251.616379 
	C335.763214,251.825699 335.525024,251.912796 335.398254,251.909943 
z"/>
<path fill="#AED0DB" opacity="1.000000" stroke="none" 
	d="
M288.071350,147.761261 
	C300.599182,147.804840 313.127106,147.828796 325.654694,147.912369 
	C327.619690,147.925476 329.582886,148.209167 331.424133,148.639587 
	C326.806244,148.940292 322.308350,148.878754 317.816833,149.020355 
	C311.871979,149.207779 305.932159,149.554153 299.990173,149.832214 
	C294.955444,149.675430 289.920685,149.518661 284.517120,149.180466 
	C284.176697,148.669357 284.323608,148.405685 285.181702,148.101685 
	C286.539978,147.917297 287.305664,147.839279 288.071350,147.761261 
z"/>
<path fill="#AEBD95" opacity="1.000000" stroke="none" 
	d="
M447.069183,355.337585 
	C465.102112,355.124207 483.537659,355.092041 502.469788,355.275146 
	C502.966309,355.490479 503.030731,355.871460 503.030731,355.871460 
	C484.511108,355.753906 465.991455,355.636322 447.069183,355.337585 
z"/>
<path fill="#89B5A5" opacity="1.000000" stroke="none" 
	d="
M503.495544,355.916870 
	C503.030731,355.871460 502.966309,355.490479 502.931274,355.301056 
	C519.374084,355.217133 535.851929,355.322662 552.707275,355.613831 
	C536.709961,355.853729 520.335205,355.907990 503.495544,355.916870 
z"/>
<path fill="#D1D2B9" opacity="1.000000" stroke="none" 
	d="
M300.456604,149.888214 
	C305.932159,149.554153 311.871979,149.207779 317.816833,149.020355 
	C322.308350,148.878754 326.806244,148.940292 331.793518,148.866287 
	C332.960663,149.067657 333.635559,149.314163 334.449707,149.794373 
	C334.588959,150.028076 334.215210,150.049438 334.031860,150.089340 
	C322.873352,150.067566 311.898193,150.005890 300.456604,149.888214 
z"/>
<path fill="#E5DDC4" opacity="1.000000" stroke="none" 
	d="
M119.949944,874.514893 
	C128.143509,874.331604 136.712555,874.388733 145.644318,874.639771 
	C137.446503,874.807495 128.885971,874.781372 119.949944,874.514893 
z"/>
<path fill="#E9C883" opacity="1.000000" stroke="none" 
	d="
M443.656281,253.133850 
	C443.944733,253.085251 443.949615,253.584503 443.911041,253.831253 
	C443.616760,253.977661 443.369934,253.858871 442.985657,253.577515 
	C443.015533,253.349731 443.191681,253.266083 443.656281,253.133850 
z"/>
<path fill="#E9C883" opacity="1.000000" stroke="none" 
	d="
M402.038879,253.277222 
	C402.136719,253.147827 402.348816,253.164032 402.859192,253.295013 
	C402.822662,253.414154 402.487885,253.418488 402.038879,253.277222 
z"/>
<path fill="#9AC3C6" opacity="1.000000" stroke="none" 
	d="
M994.207520,1383.829468 
	C993.962769,1320.980591 993.970581,1258.108398 994.089661,1195.236328 
	C994.095764,1191.993530 995.053406,1188.752686 995.851929,1185.242432 
	C996.087036,1201.301270 996.008545,1217.628662 995.994995,1233.956055 
	C995.954041,1283.278076 995.938293,1332.599976 995.864319,1382.374878 
	C995.371582,1383.153931 994.927307,1383.479980 994.207520,1383.829468 
z"/>
<path fill="#D1BA6E" opacity="1.000000" stroke="none" 
	d="
M1215.335815,1183.697998 
	C1215.065796,1161.722656 1215.007935,1139.405396 1215.004639,1117.088135 
	C1214.992798,1039.141602 1214.998535,961.195068 1215.006592,883.248535 
	C1215.006836,880.752319 1215.104980,878.256042 1215.474365,875.323975 
	C1215.791260,874.888062 1216.137329,875.066772 1216.137329,875.066772 
	C1216.091553,877.730835 1216.005981,880.394836 1216.005737,883.058899 
	C1215.998901,980.842468 1216.002930,1078.626099 1215.982178,1176.409668 
	C1215.981689,1178.725220 1215.715210,1181.040649 1215.335815,1183.697998 
z"/>
<path fill="#ACBD97" opacity="1.000000" stroke="none" 
	d="
M997.348450,1184.942505 
	C999.829102,1184.580933 1002.786316,1184.038086 1005.743958,1184.035889 
	C1075.190552,1183.984619 1144.637085,1183.991577 1214.554932,1183.979736 
	C1213.308228,1184.313843 1211.590698,1184.953735 1209.872559,1184.955078 
	C1139.190063,1185.010254 1068.507690,1185.008057 997.348450,1184.942505 
z"/>
<path fill="#C2DDE8" opacity="1.000000" stroke="none" 
	d="
M996.755554,252.881866 
	C999.388123,252.273422 1002.458557,251.251358 1005.533691,251.236923 
	C1038.364258,251.082703 1071.195557,251.088089 1104.492065,251.045685 
	C1102.818481,251.695724 1100.681030,252.913300 1098.540283,252.919464 
	C1064.759033,253.016907 1030.977173,252.958649 996.755554,252.881866 
z"/>
<path fill="#ACD1E7" opacity="1.000000" stroke="none" 
	d="
M885.936646,458.179077 
	C885.333740,455.826355 884.215759,453.475739 884.206177,451.120636 
	C884.086853,421.883118 884.099609,392.644836 884.186707,363.407104 
	C884.193420,361.149750 885.014160,358.894836 885.721069,356.379883 
	C886.011719,379.077545 886.037903,402.034058 886.067810,425.921631 
	C886.026550,437.294830 885.981628,447.736938 885.936646,458.179077 
z"/>
<path fill="#D5E5F0" opacity="1.000000" stroke="none" 
	d="
M1216.592285,875.030762 
	C1216.137329,875.066772 1215.791260,874.888062 1215.599365,874.859253 
	C1217.771606,874.221191 1220.134399,873.088196 1222.500366,873.081482 
	C1256.034546,872.986084 1289.569336,873.043457 1323.576172,873.084595 
	C1323.059937,873.464355 1322.071289,873.823486 1320.256104,874.169189 
	C1310.947144,874.379211 1302.464844,874.602539 1293.982422,874.825806 
	C1268.337402,874.882141 1242.692383,874.938416 1216.592285,875.030762 
z"/>
<path fill="#D1BA6E" opacity="1.000000" stroke="none" 
	d="
M1215.910645,664.596252 
	C1215.584839,663.644653 1215.039673,662.222046 1215.038696,660.799133 
	C1215.011475,617.846558 1215.038086,574.894043 1215.107666,531.478638 
	C1215.439331,532.622986 1215.962769,534.230103 1215.963745,535.837463 
	C1215.990356,578.599976 1215.963135,621.362549 1215.910645,664.596252 
z"/>
<path fill="#93C0C4" opacity="1.000000" stroke="none" 
	d="
M994.220947,354.769470 
	C993.911072,324.868195 993.946167,294.787415 994.018982,264.706696 
	C994.024536,262.395813 994.295593,260.085602 994.640991,257.420624 
	C994.902527,258.412567 994.966370,259.758942 995.040039,261.981781 
	C995.038452,279.808960 995.002869,296.759705 995.050903,313.710266 
	C995.055969,315.492798 995.553528,317.273926 995.822632,319.055725 
	C995.862061,328.818268 995.980591,338.581635 995.877747,348.342682 
	C995.855774,350.429443 995.030579,352.507751 994.220947,354.769470 
z"/>
<path fill="#89B5A5" opacity="1.000000" stroke="none" 
	d="
M1323.813965,667.141479 
	C1290.238037,667.094360 1256.662231,667.058105 1223.086426,666.974365 
	C1220.957153,666.969055 1218.829102,666.594849 1216.384399,666.129639 
	C1247.883057,665.911316 1279.697876,665.953247 1311.512573,666.003174 
	C1315.343140,666.009155 1319.173584,666.058044 1323.434570,666.398438 
	C1323.864990,666.709839 1323.813965,667.141479 1323.813965,667.141479 
z"/>
<path fill="#AABC98" opacity="1.000000" stroke="none" 
	d="
M887.347046,355.937988 
	C889.161255,355.581787 891.451904,355.054779 893.743652,355.049927 
	C914.882263,355.005219 936.021057,355.050751 957.589478,355.297760 
	C958.019226,355.525482 957.930420,355.891418 957.930420,355.891418 
	C934.561584,355.930725 911.192810,355.970062 887.347046,355.937988 
z"/>
<path fill="#A4B386" opacity="1.000000" stroke="none" 
	d="
M1323.869385,667.595337 
	C1323.813965,667.141479 1323.864990,666.709839 1323.888916,666.494263 
	C1324.275391,667.657043 1324.950073,669.034668 1324.953247,670.413879 
	C1324.993164,687.979187 1324.936768,705.544739 1324.818359,723.574585 
	C1324.488770,721.928284 1324.045166,719.818726 1324.034546,717.706909 
	C1323.951294,701.154541 1323.950928,684.601807 1323.869385,667.595337 
z"/>
<path fill="#ADBD97" opacity="1.000000" stroke="none" 
	d="
M1105.171875,206.105545 
	C1105.120972,188.121246 1105.062866,170.136948 1105.043091,152.152603 
	C1105.042236,151.351776 1105.390869,150.550552 1105.864258,149.692749 
	C1106.151733,149.635986 1106.173584,150.094360 1106.173584,150.094360 
	C1106.103149,168.400101 1106.032837,186.705841 1105.748535,205.517609 
	C1105.534790,206.023651 1105.171875,206.105545 1105.171875,206.105545 
z"/>
<path fill="#BFC8AD" opacity="1.000000" stroke="none" 
	d="
M995.881897,318.584778 
	C995.553528,317.273926 995.055969,315.492798 995.050903,313.710266 
	C995.002869,296.759705 995.038452,279.808960 995.074158,262.385406 
	C995.398438,263.324677 995.955994,264.736176 995.959351,266.148987 
	C996.000427,283.470459 995.960327,300.792175 995.881897,318.584778 
z"/>
<path fill="#E3C57F" opacity="1.000000" stroke="none" 
	d="
M1106.627686,150.070160 
	C1106.173584,150.094360 1106.151733,149.635986 1106.154419,149.406616 
	C1106.331299,149.119736 1106.505615,149.062241 1107.391602,148.971619 
	C1123.466919,149.072723 1138.830444,149.206955 1154.194092,149.341171 
	C1149.258789,149.560410 1144.325073,149.920120 1139.388062,149.970062 
	C1128.620117,150.078979 1117.850708,150.030258 1106.627686,150.070160 
z"/>
<path fill="#AED0DB" opacity="1.000000" stroke="none" 
	d="
M1154.341309,149.120300 
	C1138.830444,149.206955 1123.466919,149.072723 1107.657959,148.902496 
	C1109.456543,148.541824 1111.697632,147.957855 1113.944336,147.935883 
	C1125.647461,147.821350 1137.351807,147.849808 1149.916748,147.868073 
	C1151.843750,147.932999 1152.909790,147.958359 1153.975952,147.983719 
	C1153.975952,147.983719 1154.351929,148.114319 1154.499512,148.253601 
	C1154.593994,148.561722 1154.541138,148.730576 1154.341309,149.120300 
z"/>
<path fill="#D1BA6E" opacity="1.000000" stroke="none" 
	d="
M1105.121094,206.563324 
	C1105.171875,206.105545 1105.534790,206.023651 1105.715820,205.981415 
	C1105.818726,220.430222 1105.740601,234.921234 1105.484131,249.801086 
	C1105.227295,235.800308 1105.148926,221.410706 1105.121094,206.563324 
z"/>
<path fill="#D1BA6E" opacity="1.000000" stroke="none" 
	d="
M958.403076,355.927734 
	C957.930420,355.891418 958.019226,355.525482 958.062988,355.342651 
	C969.484070,355.145844 980.861511,355.131866 992.719482,355.211670 
	C984.586304,355.536987 975.973022,355.789795 967.358459,355.987885 
	C964.532593,356.052887 961.703430,355.976044 958.403076,355.927734 
z"/>
<path fill="#A4B386" opacity="1.000000" stroke="none" 
	d="
M1324.607544,871.986572 
	C1324.414673,861.498474 1324.390137,850.605591 1324.550903,839.347168 
	C1324.749390,849.848267 1324.762573,860.715027 1324.607544,871.986572 
z"/>
<path fill="#E2C582" opacity="1.000000" stroke="none" 
	d="
M886.107544,458.346375 
	C885.981628,447.736938 886.026550,437.294830 886.131409,426.380737 
	C886.459656,431.785156 886.797974,437.659424 886.974243,443.538574 
	C887.117371,448.312378 887.065918,453.092041 887.143311,458.321442 
	C886.851196,458.799561 886.548706,458.712860 886.107544,458.346375 
z"/>
<path fill="#E5DDC4" opacity="1.000000" stroke="none" 
	d="
M1294.448730,874.890015 
	C1302.464844,874.602539 1310.947144,874.379211 1319.928589,874.214478 
	C1311.923340,874.500122 1303.419189,874.727173 1294.448730,874.890015 
z"/>
<path fill="#E3C57F" opacity="1.000000" stroke="none" 
	d="
M1156.053223,149.448883 
	C1156.196167,149.340302 1156.517822,149.380432 1156.975952,149.640167 
	C1156.794434,149.854858 1156.500854,149.767471 1156.053223,149.448883 
z"/>
<path fill="#D1BA6E" opacity="1.000000" stroke="none" 
	d="
M774.619385,254.327881 
	C774.894165,264.285156 774.992981,274.591034 774.992371,284.896942 
	C774.989014,342.255585 774.961609,399.614258 774.654968,457.435913 
	C774.367554,457.898895 773.886841,457.871185 773.886841,457.871185 
	C773.924622,398.281372 773.947815,338.691498 774.016968,279.101746 
	C774.026428,270.959869 774.264954,262.818237 774.619385,254.327881 
z"/>
<path fill="#8ABCC8" opacity="1.000000" stroke="none" 
	d="
M992.774780,148.011871 
	C990.387756,148.429840 987.782471,149.019119 985.176086,149.024673 
	C954.695679,149.089569 924.215149,149.065567 893.734619,149.067902 
	C885.990112,149.068497 885.990051,149.073135 885.982483,156.587036 
	C885.955627,183.402740 885.928833,210.218430 885.677246,237.141129 
	C885.300110,235.269669 885.021912,233.291672 885.014893,231.312698 
	C884.950378,213.177460 884.933044,195.042053 884.925293,176.447266 
	C884.987000,167.010910 885.025208,158.033997 885.063477,149.057068 
	C885.787048,148.670319 886.510681,148.283569 888.021545,147.896729 
	C902.615540,147.928009 916.422363,148.004227 930.229004,147.980225 
	C950.852478,147.944366 971.475769,147.837906 992.099182,147.761475 
	C992.099182,147.761475 992.556030,147.912003 992.774780,148.011871 
z"/>
<path fill="#D1BA6E" opacity="1.000000" stroke="none" 
	d="
M665.152161,457.893311 
	C665.101440,438.903320 665.014465,419.913330 665.007324,400.923340 
	C664.990723,356.942139 665.012817,312.960907 665.065308,268.521393 
	C665.407532,270.331909 665.960205,272.600464 665.962646,274.869629 
	C666.027283,335.563721 666.035400,396.257874 665.843140,457.425720 
	C665.633057,457.899445 665.152161,457.893311 665.152161,457.893311 
z"/>
<path fill="#B7D1D5" opacity="1.000000" stroke="none" 
	d="
M445.992432,147.227753 
	C445.370605,145.574387 444.243225,143.483047 444.232635,141.386078 
	C444.090698,113.275406 444.104675,85.163940 444.038086,56.595314 
	C444.412537,55.854538 444.828857,55.571129 445.477112,55.204613 
	C445.806946,67.904701 445.955170,80.687744 445.990662,93.471100 
	C446.040039,111.243004 446.004944,129.015137 445.992432,147.227753 
z"/>
<path fill="#B5D3E0" opacity="1.000000" stroke="none" 
	d="
M994.846863,56.906433 
	C995.308472,83.844986 995.698975,110.633072 995.915771,137.422562 
	C995.942139,140.677963 995.033325,143.940918 994.297974,147.440308 
	C994.059937,117.635582 994.081787,87.590919 994.246826,57.050842 
	C994.390015,56.555420 994.723083,56.756393 994.846863,56.906433 
z"/>
<path fill="#8CBDC9" opacity="1.000000" stroke="none" 
	d="
M554.817871,149.964630 
	C520.610840,149.656174 486.403717,149.353058 452.196899,149.021255 
	C450.717010,149.006912 449.239685,148.728500 447.410034,148.365997 
	C453.700836,148.080841 460.342712,148.002792 467.916809,147.919006 
	C496.233582,147.908737 523.618164,147.904205 551.002747,147.899689 
	C552.074280,148.227631 553.145813,148.555573 554.544800,149.213013 
	C554.872314,149.542511 554.817871,149.964630 554.817871,149.964630 
z"/>
<path fill="#ADBD97" opacity="1.000000" stroke="none" 
	d="
M665.449463,458.172394 
	C665.152161,457.893311 665.633057,457.899445 665.873230,457.885437 
	C701.732117,457.900085 737.350830,457.928772 773.428223,457.914337 
	C773.886841,457.871185 774.367554,457.898895 774.607788,457.895630 
	C773.450745,458.260895 772.054077,458.948853 770.656189,458.951233 
	C736.657532,459.008759 702.658813,458.997650 668.660095,458.968170 
	C667.688843,458.967346 666.717896,458.631256 665.449463,458.172394 
z"/>
<path fill="#DBC07A" opacity="1.000000" stroke="none" 
	d="
M991.735229,147.554321 
	C971.475769,147.837906 950.852478,147.944366 930.229004,147.980225 
	C916.422363,148.004227 902.615540,147.928009 888.332153,147.824677 
	C889.305298,147.501694 890.754761,147.033401 892.204834,147.031586 
	C924.274475,146.991440 956.344177,146.999832 988.413879,147.018875 
	C989.399719,147.019455 990.385498,147.232941 991.735229,147.554321 
z"/>
<path fill="#76B0AD" opacity="1.000000" stroke="none" 
	d="
M864.093933,252.212128 
	C861.814514,252.474335 859.535645,252.959290 857.255615,252.964813 
	C830.224243,253.030319 803.192749,253.024277 775.709473,253.052689 
	C775.639526,252.727112 776.021423,252.385864 777.146484,252.010559 
	C806.624390,252.055038 835.359192,252.133575 864.093933,252.212128 
z"/>
<path fill="#B7C3A1" opacity="1.000000" stroke="none" 
	d="
M864.371704,252.150162 
	C835.359192,252.133575 806.624390,252.055038 777.418945,251.951904 
	C778.199341,251.619400 779.449951,251.045029 780.701599,251.042786 
	C807.830872,250.994461 834.960266,251.006790 862.089600,251.028229 
	C862.908081,251.028870 863.726501,251.253571 864.873413,251.662491 
	C865.017822,251.996826 864.833618,252.042511 864.371704,252.150162 
z"/>
<path fill="#B7C3A1" opacity="1.000000" stroke="none" 
	d="
M575.975342,252.171722 
	C575.773682,252.140350 575.572083,252.108978 575.070557,252.013123 
	C576.003357,251.632767 577.235596,251.043610 578.468994,251.041245 
	C604.830872,250.990784 631.192871,251.000824 657.554810,251.029541 
	C658.525757,251.030594 659.496338,251.339432 660.838257,251.733337 
	C660.718567,252.016785 660.227661,252.071732 658.902100,252.095978 
	C630.703430,252.100754 603.339355,252.136230 575.975342,252.171722 
z"/>
<path fill="#DBC07A" opacity="1.000000" stroke="none" 
	d="
M550.647339,147.690674 
	C523.618164,147.904205 496.233582,147.908737 468.375458,147.856812 
	C469.176178,147.534683 470.450073,147.039490 471.724792,147.037262 
	C496.940063,146.993134 522.155457,147.000809 547.370850,147.027496 
	C548.344666,147.028519 549.318298,147.323608 550.647339,147.690674 
z"/>
<path fill="#A2C6C6" opacity="1.000000" stroke="none" 
	d="
M884.901917,176.906693 
	C884.933044,195.042053 884.950378,213.177460 885.014893,231.312698 
	C885.021912,233.291672 885.300110,235.269669 885.638672,237.606018 
	C885.850403,240.351868 885.875916,242.739838 885.718384,245.800705 
	C885.383728,247.012451 885.232178,247.551300 885.080566,248.090149 
	C884.854980,248.885345 884.629395,249.680557 884.167725,250.674164 
	C883.966736,226.568253 884.001892,202.263962 884.278198,177.464966 
	C884.519287,176.970261 884.901917,176.906693 884.901917,176.906693 
z"/>
<path fill="#D1BA6E" opacity="1.000000" stroke="none" 
	d="
M554.875732,150.434052 
	C554.817871,149.964630 554.872314,149.542511 554.863281,149.330048 
	C555.235046,150.504410 555.945007,151.890671 555.947327,153.278107 
	C555.984131,175.577148 555.930847,197.876312 555.669800,220.617142 
	C555.441528,221.058823 555.095276,220.996185 555.095276,220.996185 
	C555.041382,197.631943 554.987488,174.267715 554.875732,150.434052 
z"/>
<path fill="#ADBD97" opacity="1.000000" stroke="none" 
	d="
M555.061523,221.462921 
	C555.095276,220.996185 555.441528,221.058823 555.614258,221.090546 
	C555.839050,230.773346 555.891113,240.424408 555.890076,250.541412 
	C555.558044,244.454651 555.234619,237.903381 555.019348,231.348557 
	C554.916321,228.212402 555.018555,225.069519 555.061523,221.462921 
z"/>
<path fill="#C0C7AA" opacity="1.000000" stroke="none" 
	d="
M884.925293,176.447266 
	C884.901917,176.906693 884.519287,176.970261 884.327759,177.000580 
	C884.274902,167.923203 884.413513,158.815491 884.807861,149.382416 
	C885.025208,158.033997 884.987000,167.010910 884.925293,176.447266 
z"/>
<path fill="#76B0AD" opacity="1.000000" stroke="none" 
	d="
M573.566162,252.101685 
	C568.945557,252.294937 563.856750,252.427460 558.412231,252.365448 
	C563.070374,252.127579 568.084229,252.084259 573.566162,252.101685 
z"/>
<path fill="#76B0AD" opacity="1.000000" stroke="none" 
	d="
M880.623291,251.277344 
	C876.564758,254.859314 871.525940,252.534760 866.343384,252.352936 
	C870.723694,251.903091 875.470825,251.642548 880.623291,251.277344 
z"/>
<path fill="#76B0AD" opacity="1.000000" stroke="none" 
	d="
M664.480591,252.796265 
	C663.904358,252.865677 663.147339,252.688034 662.150208,252.333237 
	C662.706665,252.287125 663.503174,252.418167 664.480591,252.796265 
z"/>
<path fill="#79AFA6" opacity="1.000000" stroke="none" 
	d="
M288.044983,147.457504 
	C287.305664,147.839279 286.539978,147.917297 285.389404,147.996689 
	C285.757996,147.331268 286.511414,146.664490 287.581055,145.968048 
	C287.937714,146.343506 287.978180,146.748627 288.044983,147.457504 
z"/>
<path fill="#78AFA7" opacity="1.000000" stroke="none" 
	d="
M1153.857300,147.677734 
	C1152.909790,147.958359 1151.843750,147.932999 1150.383545,147.837036 
	C1150.240112,147.364899 1150.490601,146.963348 1150.846436,146.348129 
	C1151.880859,146.546875 1152.809692,146.959305 1153.857300,147.677734 
z"/>
<path fill="#BAD245" opacity="1.000000" stroke="none" 
	d="
M1104.842163,564.025330 
	C1104.894775,565.523071 1104.993286,567.020813 1104.993286,568.518555 
	C1104.999756,737.846375 1104.999023,907.174255 1104.996948,1076.502075 
	C1104.996948,1077.335205 1104.971924,1078.168335 1104.460571,1079.481934 
	C1102.629639,1079.974976 1101.296509,1079.998535 1099.963501,1079.998535 
	C846.992188,1080.000122 594.020813,1080.000244 341.049469,1079.995972 
	C339.383728,1079.995972 337.717987,1079.935303 336.040222,1079.440430 
	C336.019012,909.313660 336.029205,739.649475 335.906342,569.985291 
	C335.902710,564.946533 337.784851,563.923035 342.353058,563.924683 
	C596.516052,564.018188 850.679138,564.016968 1104.842163,564.025330 
M445.264893,770.486877 
	C445.177704,771.311340 445.014343,772.135803 445.014191,772.960266 
	C445.001862,839.620728 444.999542,906.281189 445.022034,972.941650 
	C445.022461,974.199036 445.327362,975.456299 445.487732,976.694397 
	C446.549591,976.825378 447.203552,976.976379 447.857544,976.976624 
	C482.520966,976.991638 517.184387,977.002563 551.847778,976.954163 
	C552.844910,976.952759 553.841125,976.307678 554.972656,975.038696 
	C554.972656,906.765869 554.972656,838.493042 554.972656,769.832336 
	C544.759766,769.832336 535.123413,769.812866 525.487183,769.836121 
	C498.993225,769.900024 472.499298,769.981873 445.264893,770.486877 
M994.972656,975.038696 
	C994.972656,906.814636 994.972656,838.590637 994.972656,770.337646 
	C958.029297,770.337646 921.660706,770.337646 885.000000,770.337646 
	C885.000000,772.650330 885.000000,774.627380 885.000000,776.604431 
	C885.000000,837.397705 884.995728,898.190979 885.007080,958.984253 
	C885.008118,964.643799 885.108154,970.303406 885.529480,976.728271 
	C886.019653,976.810425 886.509705,976.964233 886.999939,976.964478 
	C921.950745,976.983337 956.901611,976.998535 991.852356,976.954163 
	C992.847900,976.952881 993.842651,976.307617 994.972656,975.038696 
z"/>
<path fill="#BAD245" opacity="1.000000" stroke="none" 
	d="
M884.848633,1375.954956 
	C885.688171,1394.351318 884.005920,1391.080933 870.459473,1391.090088 
	C768.733704,1391.159180 667.007874,1391.127930 565.282104,1391.126587 
	C563.617310,1391.126587 561.952393,1391.093750 560.287659,1391.102417 
	C556.769897,1391.120850 555.090881,1389.287720 555.046753,1385.865601 
	C555.012451,1383.202759 555.051453,1380.538940 555.302246,1377.060181 
	C555.697754,1373.933838 555.979675,1371.623047 555.980957,1369.312012 
	C556.014404,1307.925537 556.018921,1246.539185 556.028381,1185.152710 
	C557.686218,1185.059326 559.343994,1184.884644 561.001831,1184.884399 
	C667.021301,1184.871460 773.040771,1184.872192 879.060242,1184.876953 
	C880.390747,1184.876953 881.721252,1184.942017 883.510254,1185.520020 
	C883.979126,1247.084473 883.980469,1308.105469 884.035767,1369.126465 
	C884.037781,1371.402832 884.565735,1373.678833 884.848633,1375.954956 
z"/>
<path fill="#B8D266" opacity="1.000000" stroke="none" 
	d="
M1104.567139,563.723694 
	C850.679138,564.016968 596.516052,564.018188 342.353058,563.924683 
	C337.784851,563.923035 335.902710,564.946533 335.906342,569.985291 
	C336.029205,739.649475 336.019012,909.313660 335.819580,1079.450806 
	C335.610992,1079.923706 335.169952,1079.923584 335.169952,1079.923584 
	C335.113281,1077.759888 335.007141,1075.596069 335.007050,1073.432373 
	C334.999359,905.816101 334.999817,738.199829 335.000671,570.583557 
	C335.000702,563.005066 335.005096,563.000671 342.575867,563.000671 
	C594.333496,562.999878 846.091125,562.998962 1097.848755,563.017456 
	C1099.996582,563.017639 1102.144409,563.281372 1104.567139,563.723694 
z"/>
<path fill="#A2C67B" opacity="1.000000" stroke="none" 
	d="
M335.471985,1080.193115 
	C335.169952,1079.923584 335.610992,1079.923706 335.831604,1079.913330 
	C337.717987,1079.935303 339.383728,1079.995972 341.049469,1079.995972 
	C594.020813,1080.000244 846.992188,1080.000122 1099.963501,1079.998535 
	C1101.296509,1079.998535 1102.629639,1079.974976 1104.420654,1079.939575 
	C1102.480103,1080.277832 1100.081665,1080.954102 1097.682983,1080.954956 
	C945.351135,1081.004883 793.019226,1081.000000 640.687378,1081.000000 
	C541.354980,1081.000000 442.022614,1081.003540 342.690216,1080.977539 
	C340.384796,1080.976929 338.079437,1080.641846 335.471985,1080.193115 
z"/>
<path fill="#B8D266" opacity="1.000000" stroke="none" 
	d="
M555.771606,1185.463867 
	C556.018921,1246.539185 556.014404,1307.925537 555.980957,1369.312012 
	C555.979675,1371.623047 555.697754,1373.933838 555.352417,1376.600830 
	C555.105347,1361.978394 555.013184,1346.999878 555.006836,1332.021240 
	C554.987000,1285.414551 554.992859,1238.807983 555.021484,1192.201294 
	C555.022827,1190.059082 555.343079,1187.916992 555.771606,1185.463867 
z"/>
<path fill="#B8D266" opacity="1.000000" stroke="none" 
	d="
M884.897400,1375.492920 
	C884.565735,1373.678833 884.037781,1371.402832 884.035767,1369.126465 
	C883.980469,1308.105469 883.979126,1247.084473 883.970093,1185.608154 
	C884.313965,1186.900146 884.954956,1188.647461 884.955933,1190.395020 
	C884.989929,1251.940308 884.963745,1313.485474 884.897400,1375.492920 
z"/>
<path fill="#76B0AD" opacity="1.000000" stroke="none" 
	d="
M576.342102,252.356262 
	C603.339355,252.136230 630.703430,252.100754 658.533081,252.115631 
	C657.547302,252.442581 656.096375,252.957443 654.644409,252.960312 
	C629.814575,253.009415 604.984680,253.001251 580.154785,252.975662 
	C579.006042,252.974487 577.857483,252.692169 576.342102,252.356262 
z"/>
<path fill="#8ABCC8" opacity="1.000000" stroke="none" 
	d="
M885.263550,247.869919 
	C885.232178,247.551300 885.383728,247.012451 885.699768,246.246277 
	C885.724976,246.562515 885.585693,247.106094 885.263550,247.869919 
z"/>
<path fill="#0C79EC" opacity="1.000000" stroke="none" 
	d="
M885.162231,975.962952 
	C885.108154,970.303406 885.008118,964.643799 885.007080,958.984253 
	C884.995728,898.190979 885.000000,837.397705 885.000000,776.604431 
	C885.000000,774.627380 885.000000,772.650330 885.000000,770.337646 
	C921.660706,770.337646 958.029297,770.337646 994.972656,770.337646 
	C994.972656,838.590637 994.972656,906.814636 994.447266,975.509399 
	C957.668640,975.974426 921.415405,975.968689 885.162231,975.962952 
z"/>
<path fill="#0C79EC" opacity="1.000000" stroke="none" 
	d="
M446.005371,770.056702 
	C472.499298,769.981873 498.993225,769.900024 525.487183,769.836121 
	C535.123413,769.812866 544.759766,769.832336 554.972656,769.832336 
	C554.972656,838.493042 554.972656,906.765869 554.447266,975.509399 
	C520.299133,975.986816 486.676422,975.996033 453.053741,975.997803 
	C446.011780,975.998108 446.001648,975.985352 446.001556,968.796936 
	C446.000671,902.550171 446.003571,836.303467 446.005371,770.056702 
z"/>
<path fill="#3F94DA" opacity="1.000000" stroke="none" 
	d="
M445.635132,770.271790 
	C446.003571,836.303467 446.000671,902.550171 446.001556,968.796936 
	C446.001648,975.985352 446.011780,975.998108 453.053741,975.997803 
	C486.676422,975.996033 520.299133,975.986816 554.379822,975.971436 
	C553.841125,976.307678 552.844910,976.952759 551.847778,976.954163 
	C517.184387,977.002563 482.520966,976.991638 447.857544,976.976624 
	C447.203552,976.976379 446.549591,976.825378 445.487732,976.694397 
	C445.327362,975.456299 445.022461,974.199036 445.022034,972.941650 
	C444.999542,906.281189 445.001862,839.620728 445.014191,772.960266 
	C445.014343,772.135803 445.177704,771.311340 445.635132,770.271790 
z"/>
<path fill="#3F94DA" opacity="1.000000" stroke="none" 
	d="
M885.345825,976.345581 
	C921.415405,975.968689 957.668640,975.974426 994.379822,975.971436 
	C993.842651,976.307617 992.847900,976.952881 991.852356,976.954163 
	C956.901611,976.998535 921.950745,976.983337 886.999939,976.964478 
	C886.509705,976.964233 886.019653,976.810425 885.345825,976.345581 
z"/>
</svg>